<?xml version="1.0" standalone="no"?>
<!DOCTYPE svg PUBLIC "-//W3C//DTD SVG 20010904//EN"
 "http://www.w3.org/TR/2001/REC-SVG-20010904/DTD/svg10.dtd">
<svg version="1.0" xmlns="http://www.w3.org/2000/svg"
 width="1709.000000pt" height="1733.000000pt" viewBox="0 0 1709.000000 1733.000000"
 preserveAspectRatio="xMidYMid meet">

<g transform="translate(0.000000,1733.000000) scale(0.100000,-0.100000)"
fill="#000000" stroke="none">
<path d="M7535 15080 c-678 -55 -1368 -279 -1870 -607 -1141 -748 -1654 -2077
-1290 -3342 78 -271 232 -620 390 -884 42 -71 75 -130 73 -131 -2 -2 -91 -46
-198 -99 -438 -215 -802 -452 -1126 -730 -145 -125 -378 -365 -487 -502 -461
-575 -753 -1293 -843 -2070 -22 -187 -25 -655 -6 -820 84 -708 339 -1310 798
-1881 776 -965 1875 -1557 3154 -1700 318 -35 965 -30 1325 12 730 83 1464
322 2105 686 240 136 561 357 774 532 38 31 72 56 77 56 4 0 18 -13 31 -29 57
-70 803 -924 868 -994 l72 -77 1189 0 c654 0 1189 4 1189 8 0 5 -14 21 -31 38
-44 41 -438 483 -904 1014 -424 482 -888 1006 -1023 1154 l-82 89 58 63 c31
34 138 150 236 256 462 498 899 1022 1125 1347 l86 124 3 -1176 2 -1177 853 2
852 3 0 2625 0 2625 -2627 3 -2628 2 0 -860 0 -860 1195 0 c657 0 1195 -2
1195 -3 0 -39 -120 -303 -218 -479 -308 -558 -706 -1066 -1050 -1342 -72 -58
-74 -59 -91 -40 -10 10 -501 561 -1092 1224 -590 663 -1190 1336 -1334 1495
-541 601 -938 1073 -1177 1400 -227 311 -509 763 -623 997 -197 405 -279 915
-205 1279 68 330 254 647 482 819 270 204 652 300 1188 300 281 0 454 -27 694
-106 128 -43 337 -146 456 -226 313 -210 588 -574 812 -1073 37 -82 72 -149
79 -147 10 3 1200 762 1321 843 l56 38 -33 88 c-242 645 -674 1193 -1253 1591
-507 348 -1037 549 -1657 628 -143 18 -723 27 -890 14z m-1655 -6408 c63 -77
150 -176 335 -382 72 -80 175 -199 230 -265 55 -66 727 -817 1493 -1668 765
-852 1392 -1553 1392 -1558 0 -20 -278 -216 -458 -322 -310 -184 -601 -306
-919 -386 -301 -75 -528 -101 -883 -101 -883 0 -1497 172 -2030 569 -282 210
-513 493 -675 826 -193 396 -278 794 -262 1230 17 451 144 864 378 1225 237
366 618 638 1194 851 72 27 135 48 140 49 6 0 35 -31 65 -68z"/>
</g>
</svg>
